<?xml version="1.0" standalone="no"?>
<!DOCTYPE svg PUBLIC "-//W3C//DTD SVG 20010904//EN"
 "http://www.w3.org/TR/2001/REC-SVG-20010904/DTD/svg10.dtd">
<svg version="1.0" xmlns="http://www.w3.org/2000/svg"
 width="700.000000pt" height="700.000000pt" viewBox="0 0 700.000000 700.000000"
 preserveAspectRatio="xMidYMid meet">
<metadata>
Created by potrace 1.14, written by Peter Selinger 2001-2017
</metadata>
<g transform="translate(0.000000,700.000000) scale(0.100000,-0.100000)"
fill="#000000" stroke="none">
<path d="M4995 6473 c-28 -8 -259 -80 -515 -160 -256 -80 -478 -149 -495 -153
-16 -5 -66 -19 -110 -33 -44 -14 -183 -57 -310 -97 -126 -39 -257 -80 -290
-90 -125 -40 -411 -129 -445 -138 -19 -6 -143 -44 -275 -85 -132 -42 -265 -83
-295 -92 -30 -10 -95 -30 -145 -45 -49 -16 -155 -49 -235 -73 -300 -93 -416
-129 -458 -143 -52 -17 -111 -30 -172 -39 -25 -3 -74 -15 -110 -25 -36 -11
-97 -22 -135 -25 -104 -7 -142 -13 -225 -36 -333 -92 -610 -356 -723 -689 -58
-169 -56 -111 -56 -1655 0 -874 4 -1446 10 -1488 23 -161 92 -333 187 -467
100 -142 266 -281 412 -346 82 -37 97 -43 145 -58 148 -47 50 -45 2570 -45
1304 0 2390 4 2415 9 25 4 60 11 79 13 115 18 295 101 416 193 211 158 375
426 410 672 3 17 8 49 11 70 3 20 5 133 5 249 l1 213 51 26 c118 59 213 158
266 278 21 48 21 56 21 713 l0 664 -31 62 c-60 121 -138 200 -256 262 l-53 27
-1 177 c0 204 -3 236 -31 351 -86 349 -342 625 -698 753 l-65 23 -2 55 c-1 29
-2 149 -3 264 -2 259 -13 329 -76 464 -109 235 -358 418 -606 446 -109 12
-135 12 -183 -2z m158 -558 c50 -21 104 -70 130 -119 20 -38 22 -57 25 -278
l4 -238 -364 -2 c-200 -2 -714 -1 -1143 2 -668 4 -774 7 -735 18 25 7 101 31
170 52 69 22 265 82 435 135 363 112 501 155 645 201 239 75 780 242 791 243
4 1 23 -6 42 -14z m586 -1209 c141 -46 254 -143 316 -271 42 -87 55 -164 55
-327 0 -126 0 -128 -22 -129 -13 0 -282 0 -598 0 -643 -1 -663 -2 -790 -66
-146 -74 -271 -234 -296 -380 -2 -15 -7 -35 -10 -43 -7 -19 -6 -1097 1 -1135
32 -174 134 -321 280 -406 53 -31 156 -66 215 -73 19 -3 302 -5 628 -5 l594
-1 -5 -202 c-2 -112 -7 -216 -11 -233 -26 -120 -147 -272 -263 -333 -123 -64
26 -61 -2503 -61 -1462 1 -2325 4 -2360 11 -84 14 -196 74 -260 138 -74 74
-116 148 -147 261 -4 13 -8 653 -9 1422 -2 1531 -5 1449 57 1572 68 135 197
234 349 269 44 10 541 12 2390 11 2197 -2 2338 -3 2389 -19z m726 -1288 c11
-7 14 -966 3 -983 -4 -7 -250 -10 -755 -9 -411 1 -754 2 -760 3 -10 1 -13 107
-13 495 0 463 1 495 18 498 32 6 1497 3 1507 -4z"/>
</g>
</svg>
